HIERARCHY
ROOT Hips
{
	OFFSET 0.000000 0.000000 0.000000
	CHANNELS 6 Xposition Yposition Zposition Yrotation Xrotation Zrotation
	JOINT Chest
	{
		OFFSET 0.000000 -0.009281 11.569106
		CHANNELS 3 Yrotation Xrotation Zrotation
		JOINT Chest2
		{
			OFFSET -0.000000 0.016865 9.269641
			CHANNELS 3 Yrotation Xrotation Zrotation
			JOINT Chest3
			{
				OFFSET -0.000000 0.000001 8.374491
				CHANNELS 3 Yrotation Xrotation Zrotation
				JOINT Chest4
				{
					OFFSET -0.000000 0.000001 8.374493
					CHANNELS 3 Yrotation Xrotation Zrotation
					JOINT Neck
					{
						OFFSET -0.000000 0.000002 12.152554
						CHANNELS 3 Yrotation Xrotation Zrotation
						JOINT Head
						{
							OFFSET -0.000000 0.040101 7.802319
							CHANNELS 3 Yrotation Xrotation Zrotation
							End Site
							{
								OFFSET -0.000000 0.020947 14.853096
							}
						}
					}
					JOINT RightCollar
					{
						OFFSET 2.894404 0.000001 6.791374
						CHANNELS 3 Yrotation Xrotation Zrotation
						JOINT RightShoulder
						{
							OFFSET 13.574684 0.000001 0.000000
							CHANNELS 3 Yrotation Xrotation Zrotation
							JOINT RightElbow
							{
								OFFSET 23.923903 0.000002 0.000000
								CHANNELS 3 Yrotation Xrotation Zrotation
								JOINT RightWrist
								{
									OFFSET 19.846718 0.012767 0.000000
									CHANNELS 3 Yrotation Xrotation Zrotation
									End Site
									{
										OFFSET 14.973145 0.000001 0.000000
									}
								}
							}
						}
					}
					JOINT LeftCollar
					{
						OFFSET -2.894404 0.000001 6.791374
						CHANNELS 3 Yrotation Xrotation Zrotation
						JOINT LeftShoulder
						{
							OFFSET -13.574684 -0.000001 0.000000
							CHANNELS 3 Yrotation Xrotation Zrotation
							JOINT LeftElbow
							{
								OFFSET -23.923903 -0.000002 0.000000
								CHANNELS 3 Yrotation Xrotation Zrotation
								JOINT LeftWrist
								{
									OFFSET -19.846718 0.012763 0.000000
									CHANNELS 3 Yrotation Xrotation Zrotation
									End Site
									{
										OFFSET -14.973145 -0.000001 0.000000
									}
								}
							}
						}
					}
				}
			}
		}
	}
	JOINT RightHip
	{
		OFFSET 9.469263 0.004643 0.045487
		CHANNELS 3 Yrotation Xrotation Zrotation
		JOINT RightKnee
		{
			OFFSET 0.000000 0.002661 -40.478676
			CHANNELS 3 Yrotation Xrotation Zrotation
			JOINT RightAnkle
			{
				OFFSET 0.000000 0.049106 -35.224068
				CHANNELS 3 Yrotation Xrotation Zrotation
				JOINT RightToe
				{
					OFFSET -0.000001 12.539529 -6.151390
					CHANNELS 3 Yrotation Xrotation Zrotation
					End Site
					{
						OFFSET -0.000001 5.044994 -1.291870
					}
				}
			}
		}
	}
	JOINT LeftHip
	{
		OFFSET -9.469263 0.004641 0.045487
		CHANNELS 3 Yrotation Xrotation Zrotation
		JOINT LeftKnee
		{
			OFFSET 0.000000 0.002661 -40.478676
			CHANNELS 3 Yrotation Xrotation Zrotation
			JOINT LeftAnkle
			{
				OFFSET 0.000000 0.049106 -35.224068
				CHANNELS 3 Yrotation Xrotation Zrotation
				JOINT LeftToe
				{
					OFFSET -0.000001 12.539529 -6.151390
					CHANNELS 3 Yrotation Xrotation Zrotation
					End Site
					{
						OFFSET -0.000001 5.044994 -1.291870
					}
				}
			}
		}
	}
}
MOTION
Frames: 7
Frame Time: 0.016667
-26.381710 2.669400 73.714783 -2.574975 6.525651 -130.333260 -9.632990 -8.017908 10.585108 -3.887184 -3.667096 4.828606 -3.887184 -3.667098 4.828606 -2.885597 -2.781356 3.597040 -2.845913 -19.541994 3.248642 -4.182821 -0.073255 5.044662 8.656281 0.595556 2.045092 56.579197 2.332634 61.212258 -9.808458 -35.570645 85.744317 -49.877248 29.693489 35.166253 -7.414054 8.795860 3.324843 -61.023396 37.264730 6.587145 4.501878 4.133899 -0.785133 10.557468 4.454090 -24.149150 5.158479 11.388948 -14.257010 32.630498 -49.261100 -29.347936 16.407190 -3.214151 31.688765 0.154211 0.717855 0.267681 -24.204399 33.171193 -16.992476 -10.184034 -31.454886 30.712338 12.318186 1.997251 5.431925 0.876889 0.077886 0.874392 
-26.322178 2.476488 73.801407 -2.615793 6.653239 -130.356332 -9.650328 -8.016666 10.691700 -3.880195 -3.647832 4.837807 -3.880194 -3.647833 4.837807 -2.880466 -2.766912 3.604118 -2.786777 -19.640764 3.213541 -4.087802 -0.257780 5.000135 8.644128 0.596944 2.046018 56.509150 2.146946 61.261353 -10.102337 -35.862847 85.360262 -49.679442 29.691799 35.342858 -7.454088 8.795896 3.297476 -60.994908 37.366695 6.596644 4.560622 4.972020 -0.611380 10.467347 5.137120 -23.994714 5.092889 11.233880 -14.199554 32.521614 -48.986909 -29.170580 16.058589 -3.610244 31.766254 0.143149 0.975244 0.215374 -24.190915 33.058631 -16.841489 -10.219089 -31.322069 30.798064 12.364662 2.081793 5.552680 0.752809 0.189672 1.030995 
-26.255585 2.297259 73.886581 -2.626953 6.803443 -130.432858 -9.676028 -7.964574 10.860668 -3.871277 -3.624594 4.851287 -3.871277 -3.624590 4.851291 -2.873899 -2.749498 3.614445 -2.723862 -19.750047 3.170680 -3.988523 -0.461899 4.942647 8.627447 0.578136 2.027430 56.407237 1.941755 61.341997 -10.583579 -36.103010 85.016164 -49.618049 29.787333 35.483628 -7.500686 8.812370 3.285230 -60.900282 37.502687 6.660576 4.587710 5.830850 -0.455737 10.373021 5.971502 -23.682633 5.034292 11.091291 -14.079514 32.406160 -48.708763 -29.023718 15.971194 -3.833177 31.779764 0.072165 1.101634 0.063363 -24.165231 32.994697 -16.634000 -10.230432 -31.189775 30.810410 12.452289 2.166776 5.739432 0.632758 0.282734 1.111036 
-26.166454 2.114106 73.971146 -2.642241 6.941288 -130.482896 -9.694925 -7.926162 10.999115 -3.861208 -3.598620 4.867068 -3.861208 -3.598619 4.867065 -2.866477 -2.730035 3.626508 -2.658493 -19.849812 3.127724 -3.884594 -0.648405 4.885551 8.598657 0.528223 2.017248 56.311720 1.759007 61.482371 -11.001731 -36.367301 84.596428 -49.584547 29.926904 35.554246 -7.557410 8.776592 3.278205 -60.775672 37.752327 6.717926 4.602233 6.683013 -0.319005 10.215852 6.847003 -23.246414 4.962587 10.933313 -14.003542 32.292342 -48.443048 -28.877879 15.828762 -4.038805 31.824389 0.035596 1.206815 -0.020743 -24.149578 32.900598 -16.447495 -10.242091 -31.078419 30.793098 12.546300 2.277336 5.929212 0.533720 0.359156 1.161780 
-26.074919 1.943909 74.054893 -2.611100 7.091640 -130.570404 -9.710637 -7.843340 11.167237 -3.854610 -3.573302 4.888936 -3.854609 -3.573304 4.888937 -2.861620 -2.711129 3.643126 -2.590388 -19.933625 3.084396 -3.775467 -0.805327 4.828365 8.578490 0.499112 2.022482 56.235662 1.586305 61.639705 -11.275847 -36.660190 84.049733 -49.466487 29.971912 35.552415 -7.585778 8.721827 3.278018 -60.671799 38.066943 6.764451 4.631397 7.630004 -0.202507 9.927644 7.749691 -22.701119 4.920432 10.806341 -13.902744 32.169645 -48.171364 -28.680787 15.753418 -4.196617 31.753362 -0.011765 1.311789 -0.118586 -24.084009 32.867943 -16.254407 -10.291920 -30.981000 30.847569 12.621980 2.400500 5.944535 0.474536 0.433786 1.233147 
-25.980791 1.756759 74.134232 -2.552708 7.207969 -130.658541 -9.690289 -7.760124 11.325208 -3.850211 -3.550251 4.910697 -3.850211 -3.550254 4.910696 -2.858394 -2.693944 3.659623 -2.529160 -19.996094 3.047437 -3.676479 -0.922486 4.780396 8.548418 0.476742 2.019354 56.186789 1.384778 61.831414 -11.428527 -36.937994 83.386508 -49.199669 29.817713 35.524879 -7.626520 8.674860 3.247386 -60.506986 38.438891 6.851559 4.670289 8.757754 -0.072811 9.475760 8.777977 -22.066511 4.900066 10.682139 -13.821404 32.109979 -47.882102 -28.485096 15.451206 -4.457498 31.687922 -0.002878 1.474713 -0.100294 -23.971990 32.836831 -16.058366 -10.355698 -30.899984 30.932042 12.692111 2.563960 5.976369 0.436215 0.478922 1.269239 
-25.881302 1.585468 74.206650 -2.492789 7.352676 -130.780282 -9.700235 -7.649201 11.502125 -3.849875 -3.526624 4.935782 -3.849875 -3.526626 4.935782 -2.858203 -2.676384 3.678605 -2.472032 -20.055389 3.009503 -3.585197 -1.033670 4.729304 8.531361 0.476410 2.011497 56.102460 1.126702 62.029463 -11.524510 -37.123338 82.610448 -48.788034 29.588946 35.560243 -7.650497 8.626111 3.208921 -60.326929 38.814893 6.932930 4.723520 10.074140 0.098433 8.961895 9.981451 -21.314239 4.838368 10.565200 -13.753498 32.109225 -47.607067 -28.398374 15.102235 -4.771063 31.672041 -0.002460 1.670278 -0.077922 -23.878522 32.836811 -15.870976 -10.427492 -30.827878 31.007782 12.825489 2.700600 6.020061 0.354380 0.529678 1.297492 
